<svg height="512" viewBox="0 0 64 64" width="512" xmlns="http://www.w3.org/2000/svg"><path d="m61 32c0 .34-.01.67-.03 1a28.714 28.714 0 0 1 -7.77 18.78c-.45.49-.93.97-1.42 1.42a28.714 28.714 0 0 1 -18.78 7.77c-.33.02-.66.03-1 .03s-.67-.01-1-.03a28.714 28.714 0 0 1 -18.78-7.77c-.49-.45-.97-.93-1.42-1.42a28.714 28.714 0 0 1 -7.77-18.78c-.02-.33-.03-.66-.03-1s.01-.67.02-1a28.752 28.752 0 0 1 7.78-18.78c.45-.49.93-.97 1.42-1.42a28.714 28.714 0 0 1 18.78-7.77c.33-.02.66-.03 1-.03s.67.01 1 .03a28.714 28.714 0 0 1 18.78 7.77c.49.45.97.93 1.42 1.42a28.752 28.752 0 0 1 7.78 18.78c.01.33.02.66.02 1z" fill="#143441"/><circle cx="32" cy="32" fill="#f4f4e6" r="23"/><path d="m49 32a17 17 0 1 1 -1.46-6.89 16.6 16.6 0 0 1 .71 1.86 17.055 17.055 0 0 1 .75 5.03z" fill="#143441"/><circle cx="32" cy="32" fill="#f4f4e6" r="11"/><circle cx="32" cy="32" fill="#e1462b" r="5"/><g fill="#ffd782"><path d="m33 3.03v2.97h-2v-2.97c.33-.02.66-.03 1-.03s.67.01 1 .03z"/><path d="m14.71 13.29-1.42 1.42-2.49-2.49c.45-.49.93-.97 1.42-1.42z"/><path d="m53.2 12.22-2.49 2.49-1.42-1.42 2.49-2.49c.49.45.97.93 1.42 1.42z"/><path d="m33 58v2.97c-.33.02-.66.03-1 .03s-.67-.01-1-.03v-2.97z"/><path d="m14.71 50.71-2.49 2.49c-.49-.45-.97-.93-1.42-1.42l2.49-2.49z"/><path d="m53.2 51.78c-.45.49-.93.97-1.42 1.42l-2.49-2.49 1.42-1.42z"/><path d="m6 31v2h-2.97c-.02-.33-.03-.66-.03-1s.01-.67.02-1z"/><path d="m61 32c0 .34-.01.67-.03 1h-2.97v-2h2.98c.01.33.02.66.02 1z"/></g><circle cx="14" cy="24" fill="#e1462b" r="3"/><circle cx="55" cy="21" fill="#e1462b" r="3"/><circle cx="39" cy="51" fill="#e1462b" r="3"/><path d="m48.25 26.97-15.9 5.97-.7-1.88 15.89-5.95a16.6 16.6 0 0 1 .71 1.86z" fill="#2d75bb"/></svg>